<svg xmlns="http://www.w3.org/2000/svg" viewBox="0 0 32 32"><circle cx="16" cy="16" r="16" fill="#2775CA"/><path fill="#fff" d="M20.6 18.2c0-2.2-1.3-3-4-3.3-1.9-.3-2.3-.8-2.3-1.7s.7-1.5 2-1.5c1.2 0 1.8.4 2.1 1.4.1.2.2.3.4.3h1c.2 0 .4-.2.3-.4-.2-1.3-1.1-2.4-2.5-2.7v-1.5c0-.2-.2-.4-.5-.4h-.9c-.3 0-.5.2-.5.4v1.4c-1.7.3-2.8 1.5-2.8 3 0 2.1 1.3 2.9 3.9 3.2 1.8.3 2.4.8 2.4 1.8s-1 1.7-2.2 1.7c-1.7 0-2.3-.7-2.5-1.6-.1-.2-.2-.3-.4-.3h-1c-.2 0-.4.2-.3.4.3 1.5 1.2 2.5 3 2.9v1.5c0 .2.2.4.5.4h.9c.3 0 .5-.2.5-.4v-1.5c1.8-.3 2.9-1.6 2.9-3.2z"/><path fill="#fff" d="M12.8 24.7c-4.8-1.7-7.2-7-5.5-11.8 1-2.7 3.1-4.7 5.5-5.5.3-.1.4-.3.4-.6v-.9c0-.2-.2-.4-.4-.4-.1 0-.1 0-.2.1C7.3 7.5 4.5 13.4 6.4 18.7c1.1 3.1 3.5 5.5 6.6 6.6.3.1.5 0 .6-.3 0-.1 0-.1 0-.2v-.9c0-.2-.1-.4-.4-.5-.2-.1-.3-.3-.4-.7zm6.4-18.8c-.3-.1-.5 0-.6.3 0 .1 0 .1 0 .2v.9c0 .3.2.5.4.6 4.8 1.7 7.2 7 5.5 11.8-1 2.7-3.1 4.7-5.5 5.5-.3.1-.4.3-.4.6v.9c0 .2.2.4.4.4.1 0 .1 0 .2-.1 5.3-1.9 8.1-7.8 6.2-13.1-1.1-3.1-3.5-5.5-6.6-6.6.2-.1.3-.3.4-.4z"/></svg>
